<svg xmlns="http://www.w3.org/2000/svg" aria-hidden="true">
  <symbol id="icon-antenna" viewBox="0 0 64 64">
    <path d="M32 6a2 2 0 0 1 2 2v22.17a16 16 0 1 1-4 0V8a2 2 0 0 1 2-2Z" />
    <path d="M19.27 18.1a2 2 0 0 1 2.82 0 14 14 0 0 0 19.82 0 2 2 0 1 1 2.82 2.82 18 18 0 0 1-25.46 0 2 2 0 0 1 0-2.82Z" />
    <path d="M11.51 10.34a2 2 0 0 1 2.83 0 24 24 0 0 0 33.94 0 2 2 0 0 1 2.83 2.83 28 28 0 0 1-39.6 0 2 2 0 0 1 0-2.83Z" />
  </symbol>

  <symbol id="icon-clock" viewBox="0 0 64 64">
    <path d="M32 8a24 24 0 1 1 0 48 24 24 0 0 1 0-48Zm0 4a20 20 0 1 0 0 40 20 20 0 0 0 0-40Z" />
    <path d="M32 18a2 2 0 0 1 2 2v10.17l6.41 3.85a2 2 0 1 1-2.06 3.42l-7.38-4.43A2 2 0 0 1 30 31.3V20a2 2 0 0 1 2-2Z" />
  </symbol>

  <symbol id="icon-diagram" viewBox="0 0 64 64">
    <path d="M10 54a2 2 0 0 1-2-2V12a2 2 0 1 1 4 0v38h42a2 2 0 1 1 0 4H10Z" />
    <path d="M20 42a2 2 0 0 1-2-2V30a2 2 0 1 1 4 0v10a2 2 0 0 1-2 2Z" />
    <path d="M32 42a2 2 0 0 1-2-2V22a2 2 0 1 1 4 0v18a2 2 0 0 1-2 2Z" />
    <path d="M44 42a2 2 0 0 1-2-2V16a2 2 0 1 1 4 0v24a2 2 0 0 1-2 2Z" />
  </symbol>

   <symbol id="icon-astronaut" viewBox="0 0 64 64">
    <path d="M32 8c8.84 0 16 7.16 16 16v6.43a9.95 9.95 0 0 1 4 7.97V50a6 6 0 0 1-6 6h-2v-6a2 2 0 1 0-4 0v6H24v-6a2 2 0 1 0-4 0v6h-2a6 6 0 0 1-6-6V38.4a9.95 9.95 0 0 1 4-7.97V24c0-8.84 7.16-16 16-16Zm0 4c-6.63 0-12 5.37-12 12v4.17c1.23-.37 2.54-.57 3.9-.57h16.2c1.36 0 2.67.2 3.9.57V24c0-6.63-5.37-12-12-12Zm-8.1 19.6A7.9 7.9 0 0 0 16 39.5V50a2 2 0 0 0 2 2h28a2 2 0 0 0 2-2V39.5a7.9 7.9 0 0 0-7.9-7.9H23.9ZM26 40a4 4 0 1 1 0 8 4 4 0 0 1 0-8Zm12 0a4 4 0 1 1 0 8 4 4 0 0 1 0-8Z" />
  </symbol>

  <symbol id="icon-instagram" viewBox="0 0 24 24">
    <path d="M7 2h10a5 5 0 0 1 5 5v10a5 5 0 0 1-5 5H7a5 5 0 0 1-5-5V7a5 5 0 0 1 5-5Zm0 2a3 3 0 0 0-3 3v10a3 3 0 0 0 3 3h10a3 3 0 0 0 3-3V7a3 3 0 0 0-3-3H7Z" />
    <path d="M12 7a5 5 0 1 1 0 10 5 5 0 0 1 0-10Zm0 2.1A2.9 2.9 0 1 0 12 14.9 2.9 2.9 0 0 0 12 9.1Zm5.25-2.35a1.15 1.15 0 1 1 0 2.3 1.15 1.15 0 0 1 0-2.3Z" />
  </symbol>

  <symbol id="icon-twitter" viewBox="0 0 24 24">
    <path d="M22 5.92c-.74.33-1.53.55-2.36.65a4.1 4.1 0 0 0 1.8-2.27 8.18 8.18 0 0 1-2.6 1A4.08 4.08 0 0 0 12 8.1a11.58 11.58 0 0 1-8.4-4.27 4.08 4.08 0 0 0 1.26 5.45 4.05 4.05 0 0 1-1.84-.5v.05A4.08 4.08 0 0 0 6.3 12.8c-.3.08-.62.12-.95.12-.23 0-.46-.02-.68-.06A4.1 4.1 0 0 0 8.5 15.7a8.2 8.2 0 0 1-6.05 1.7A11.56 11.56 0 0 0 8.7 19.2c7.45 0 11.52-6.18 11.52-11.54l-.01-.53A8.22 8.22 0 0 0 22 5.92Z" />
  </symbol>

  <symbol id="icon-facebook" viewBox="0 0 24 24">
    <path d="M13.62 22v-8.14h2.74l.41-3.18h-3.15V8.65c0-.92.25-1.55 1.56-1.55H16.9V4.26c-.3-.04-1.33-.12-2.53-.12-2.5 0-4.22 1.52-4.22 4.34v2.2H7.3v3.18h2.85V22h3.47Z" />
  </symbol>

  <symbol id="icon-linkedin" viewBox="0 0 24 24">
    <path d="M6.94 8.5H3.56V20h3.38V8.5ZM5.25 3A1.97 1.97 0 1 0 5.3 6.94 1.97 1.97 0 0 0 5.25 3ZM20.44 12.77c0-3.47-1.85-5.09-4.32-5.09-1.99 0-2.88 1.09-3.38 1.87V8.5H9.37c.04.7 0 11.5 0 11.5h3.37v-6.42c0-.34.03-.68.13-.92.27-.68.9-1.38 1.94-1.38 1.37 0 1.91 1.04 1.91 2.56V20h3.38v-7.23Z" />
  </symbol>
</svg>